<svg id="Layer_1" data-name="Layer 1" xmlns="http://www.w3.org/2000/svg" viewBox="0 0 215.43 215.43"><defs><style>.cls-1{fill:#ededed;}.cls-2{fill:none;}.cls-3{fill:#1d1d1b;}.cls-4{isolation:isolate;}.cls-5{fill:#fff;}.cls-6{fill:#be4b95;}.cls-7{fill:#4b4b9a;}.cls-8{fill:#5cb463;}.cls-9{fill:#feed53;}.cls-10{fill:#f0a66b;}.cls-11{fill:#e7646f;}</style></defs><path class="cls-1" d="M140.46,75.42a46.41,46.41,0,1,0,13.63,32.82A46.42,46.42,0,0,0,140.46,75.42Zm-19,38.54a14.91,14.91,0,1,1-13.79-20.63,14.83,14.83,0,0,1,10.55,4.38,14.61,14.61,0,0,1,3.23,4.81,14.79,14.79,0,0,1,1.15,5.72A15.16,15.16,0,0,1,121.44,114Z"/><rect class="cls-2" width="215.43" height="215.43"/><path class="cls-3" d="M40.52,165.47l1,.54a1,1,0,0,0,.27,1.05c.27.3.62.5.81.33s.11-.32-.15-.74l-.4-.64c-.44-.69-.5-1.37,0-1.83s1.57-.22,2.26.54a1.91,1.91,0,0,1,.53,2l-1-.53c.17-.26,0-.56-.23-.84s-.54-.44-.7-.29-.11.28.08.61l.41.67c.54.87.63,1.41.11,1.87-.74.66-1.7.29-2.44-.54A2.09,2.09,0,0,1,40.52,165.47Z"/><path class="cls-3" d="M47.93,170.88l.11-.12a.59.59,0,0,0,.13-.82.4.4,0,0,0-.13-.13.69.69,0,0,0-.86-.15l-.51-1a2.09,2.09,0,0,1,2.1.63,1.56,1.56,0,0,1,.46,2.16,1.54,1.54,0,0,1-.34.38l-.68.71a9.08,9.08,0,0,0-1.05,1.27l-.85-.82.24-.47a1.56,1.56,0,0,1-1.42-.53,1.3,1.3,0,0,1-.24-1.81l0-.07C45.63,169.35,46.7,169.84,47.93,170.88Zm-2,0c-.19.2-.13.49.12.73a.88.88,0,0,0,1.31-.08l.06-.08c-.68-.57-1.19-.9-1.49-.58Z"/><path class="cls-3" d="M52.68,175.1l.11-.12a.6.6,0,0,0,0-.83.57.57,0,0,0-.15-.12.66.66,0,0,0-.87-.08l-.58-1a2,2,0,0,1,2.1.47,1.56,1.56,0,0,1,.61,2.13,1.62,1.62,0,0,1-.3.39l-.59.7a8,8,0,0,0-.93,1.34l-.92-.76.21-.48a1.59,1.59,0,0,1-1.45-.43,1.3,1.3,0,0,1-.36-1.81.1.1,0,0,0,0,0C50.3,173.69,51.35,174.16,52.68,175.1Zm-2,.14a.5.5,0,0,0,.14.69l0,0c.39.33.8.41,1.3-.18l.06-.08c-.72-.51-1.25-.79-1.53-.45Z"/><path class="cls-3" d="M56.26,176l1,.78-.93,2.81,2.37-1.78,1,.77-3.64,2.5L55,180.22Z"/><path class="cls-3" d="M62.67,180.36l-1.14,1.86c-.3.51-.56.94,0,1.27s.79.11,1.19-.54l1.15-1.86,1.05.67-2.17,3.54-1-.58.16-.59a1.26,1.26,0,0,1-1.39,0c-1-.58-.91-1.29-.31-2.26l1.3-2.09Z"/><path class="cls-3" d="M66.83,182.82l.61.32.48-.92,1.14.6-.49.91.8.43-.45.86-.8-.42-.78,1.52c-.18.35-.11.47.26.67l.32.17-.48.92-.71-.38c-.91-.47-1.13-.8-.67-1.67L67,184l-.61-.32Z"/><path class="cls-3" d="M73.29,185.87a2.13,2.13,0,0,1,1.09,2.83,1.34,1.34,0,0,1-.17.31l-2.8-1.24a.91.91,0,0,0,.51,1.18h0a1,1,0,0,0,.89.06l.78.75a2.17,2.17,0,0,1-2,.11,2.09,2.09,0,0,1-1.31-2.65,1.48,1.48,0,0,1,.12-.29,2.09,2.09,0,0,1,2.73-1.15A.66.66,0,0,1,73.29,185.87Zm-1.58,1.22,1.73.78a.83.83,0,0,0-.43-1.09l-.07,0A.91.91,0,0,0,71.71,187.09Z"/><path class="cls-3" d="M77,187.54l.65.25.36-1,1.19.44-.35,1,.85.31-.34.91-.85-.31-.58,1.57c-.14.37,0,.48.34.63l.35.13-.36,1-.75-.27c-1-.36-1.23-.66-.89-1.58l.7-1.89-.65-.24Z"/><path class="cls-3" d="M81.56,189.17l.66.2.31-1,1.21.37-.3,1,.87.26-.28.93-.87-.26-.48,1.6c-.12.38,0,.49.37.61l.36.11-.31,1-.76-.23c-1-.3-1.27-.59-1-1.53l.59-1.93-.66-.2Z"/><path class="cls-3" d="M88.59,192.69v-.15c.1-.48-.1-.7-.54-.8a.66.66,0,0,0-.8.31l-1-.62a2.06,2.06,0,0,1,2.1-.51c1.15.27,1.69.88,1.4,2.1l-.21.89a9.88,9.88,0,0,0-.23,1.62l-1.15-.27v-.52a1.57,1.57,0,0,1-1.49.27,1.3,1.3,0,0,1-1.15-1.43.5.5,0,0,1,0-.12C85.8,192.51,87,192.41,88.59,192.69Zm-1.72,1.05a.57.57,0,0,0,.47.57c.49.11.91,0,1-.75v-.1c-.82-.16-1.4-.17-1.52.25Z"/><path class="cls-3" d="M92.17,191.85l1.3.21.44,2.94,1.32-2.66,1.3.2-2.09,3.87L93,196.19Z"/><path class="cls-3" d="M99.85,192.89l-.18,2.17c0,.59-.07,1.05.54,1.13s.77-.24.83-1l.18-2.19,1.28.11-.35,4.19-1-.09-.13-.6a1.28,1.28,0,0,1-1.26.59c-1-.1-1.38-.75-1.29-1.88l.2-2.48Z"/><path class="cls-3" d="M106.28,193.23v2.18c0,.58,0,1.05.62,1.05s.75-.31.76-1.05v-2.19h1.28l-.08,4.19h-1l-.16-.59a1.28,1.28,0,0,1-1.22.66c-1.11,0-1.44-.65-1.41-1.78v-2.49Z"/><path class="cls-3" d="M111.38,196.38l1.05-.46c.14.35.53.48,1,.46s.77-.18.75-.44-.18-.28-.66-.33l-.75-.08c-.82-.08-1.4-.46-1.44-1.15-.06-.87.79-1.37,1.82-1.44a1.93,1.93,0,0,1,1.9.8l-1,.46c-.1-.29-.43-.35-.79-.33s-.69.16-.68.38.16.26.54.3l.78.09c1,.13,1.5.39,1.55,1.05.06,1-.83,1.51-1.94,1.58A2.08,2.08,0,0,1,111.38,196.38Z"/><path class="cls-3" d="M120.22,193.9v-.16c-.08-.48-.35-.62-.79-.55a.67.67,0,0,0-.64.58l-1.12-.23a2,2,0,0,1,1.75-1.22c1.17-.16,1.9.22,2.1,1.46l.12.9a8.65,8.65,0,0,0,.37,1.6l-1.17.16-.21-.48a1.62,1.62,0,0,1-1.3.79,1.3,1.3,0,0,1-1.57-.94.43.43,0,0,0,0-.11C117.54,194.73,118.63,194.23,120.22,193.9ZM119,195.46c0,.27.3.41.64.37a.86.86,0,0,0,.73-1.05v-.1C119.49,194.83,118.92,195,119,195.46Z"/><path class="cls-3" d="M124.13,194.93l1-.61a.94.94,0,0,0,1.05.3c.41-.08.74-.28.69-.53s-.22-.27-.71-.24h-.76c-.81,0-1.43-.26-1.58-.94-.19-.85.59-1.47,1.59-1.67a1.91,1.91,0,0,1,2,.51l-1,.61c-.14-.28-.47-.3-.84-.21s-.65.25-.6.46.19.24.57.23h.78c1.05,0,1.55.16,1.7.84.2,1-.61,1.61-1.7,1.85A2.09,2.09,0,0,1,124.13,194.93Z"/><path class="cls-3" d="M129.35,190.45l2-.55,1.11,4-1.24.34-.86-3.07-.75.21Zm.27-1.56a.76.76,0,1,1,1.46-.41.76.76,0,0,1-1.46.41Z"/><path class="cls-3" d="M136.57,189.85v-.15c-.16-.45-.45-.53-.87-.38a.66.66,0,0,0-.52.7H134a2,2,0,0,1,1.48-1.55,1.56,1.56,0,0,1,2.13.58,1.28,1.28,0,0,1,.18.47l.3.86a9.81,9.81,0,0,0,.66,1.48l-1.11.39-.3-.42a1.64,1.64,0,0,1-1.12,1,1.29,1.29,0,0,1-1.72-.61l0-.08C134.17,191.19,135.09,190.49,136.57,189.85Zm-.91,1.78c.09.26.39.34.7.22a.86.86,0,0,0,.51-1.2v-.1C136,190.92,135.52,191.21,135.66,191.63Z"/><path class="cls-3" d="M140.58,186.63l.36.45a1.54,1.54,0,0,1,.91-1.13c1-.42,1.54,0,2,1.05l1,2.33-1.16.5-.88-2c-.23-.54-.45-1-1.05-.74s-.55.67-.25,1.37l.84,2-1.17.51-1.65-3.82Z"/><path class="cls-3" d="M145.06,184.6l.62-.32-.47-.92,1.13-.59.47.93.81-.41.44.87-.81.41.77,1.5c.19.34.33.35.69.16l.34-.16.47.93-.71.37c-.92.46-1.33.45-1.77-.42l-.92-1.8-.61.32Z"/><path class="cls-3" d="M150.69,181.55l1.12,1.87c.31.52.58.93,1.12.61s.47-.65.07-1.31l-1.12-1.84,1.1-.66,2.09,3.56-.95.58-.45-.42a1.25,1.25,0,0,1-.68,1.21c-1,.57-1.56.2-2.1-.76l-1.29-2.1Z"/><path class="cls-3" d="M156,178.18l.44.37a1.54,1.54,0,0,1,.66-1.29c.88-.63,1.51-.3,2.16.61l1.45,2.1-1,.74-1.28-1.81c-.34-.48-.64-.86-1.15-.51s-.39.77,0,1.39l1.24,1.74-1.05.74-2.4-3.4Z"/><path class="cls-3" d="M159.93,175.28l.53-.43-.65-.81,1-.81.66.81.7-.56.61.75-.7.58,1.05,1.3c.25.3.38.28.71,0l.28-.23.66.8-.63.51c-.79.65-1.19.71-1.81,0l-1.26-1.58-.53.43Z"/><path class="cls-3" d="M163.28,170.6a.75.75,0,0,1,0-1,.77.77,0,1,1,1.05,1.12A.74.74,0,0,1,163.28,170.6Zm.46,1.52,1.53-1.38,2.79,3.08-.95.86-2.1-2.36-.58.53Z"/><path class="cls-3" d="M166,167a.74.74,0,0,1,1,0,.74.74,0,1,1-1,0Zm3.86,5.6c.31-.31.35-.43.16-.62l-2.94-3,.91-.9,3.06,3.14c.67.68.34,1.29-.31,1.93l-.53.52-.7-.72Z"/><path class="cls-3" d="M172.56,165.52l-.11-.11a.6.6,0,0,0-.83-.06.47.47,0,0,0-.13.15.67.67,0,0,0-.11.86l-1,.54a2.08,2.08,0,0,1,.55-2.09,1.55,1.55,0,0,1,2.13-.54,1.37,1.37,0,0,1,.39.33l.68.6a8.76,8.76,0,0,0,1.31,1l-.8.88-.47-.22a1.59,1.59,0,0,1-.48,1.44,1.29,1.29,0,0,1-1.8.3l-.07-.05C171.06,167.88,171.58,166.8,172.56,165.52Zm.06,2a.51.51,0,0,0,.73-.15.87.87,0,0,0-.14-1.3l-.07-.07c-.53.71-.84,1.25-.52,1.52Z"/><g class="cls-4"><path class="cls-3" d="M61.21,158.31l1,.86-2.12,2.48c-.54.63-.76,1.14-.05,1.74s1.16.3,1.7-.33l2.12-2.48,1,.86-2.05,2.4c-1.12,1.31-2.16,1.5-3.48.37S58,162,59.16,160.7Z"/></g><g class="cls-4"><path class="cls-3" d="M63.29,167.36l3.32-1.19,0-3.34,1.3.9,0,2,1.86-.67,1.3.9-3.15,1.13,0,3.54-1.31-.91,0-2.17-2,.74Z"/></g><g class="cls-4"><path class="cls-3" d="M71,170.57l.53-.94L73.86,171l-.53.94Z"/></g><g class="cls-4"><path class="cls-3" d="M75.28,173.6l1.14.1c0,.37.24.68.68.88s.77.22.87,0,0-.33-.42-.61l-.63-.43c-.67-.46-1-1.06-.71-1.69.36-.79,1.35-.83,2.29-.4A1.91,1.91,0,0,1,79.78,173L78.64,173c0-.31-.2-.52-.54-.68s-.67-.18-.77,0,0,.3.33.52l.64.45c.83.59,1.14,1.05.84,1.69-.41.89-1.44.93-2.46.47A2.08,2.08,0,0,1,75.28,173.6Z"/></g><g class="cls-4"><path class="cls-3" d="M83.77,173.75,83,175.8c-.19.56-.34,1,.24,1.24s.8,0,1.06-.77l.73-2.06,1.21.42-1.39,3.92-1-.37,0-.61a1.27,1.27,0,0,1-1.37.25c-1-.37-1.15-1.07-.77-2.14l.83-2.36Z"/></g><g class="cls-4"><path class="cls-3" d="M90,175.69l-.53,2.12c-.14.58-.24,1.06.36,1.21s.79-.12,1-.87l.53-2.12,1.24.31-1,4-1.07-.27,0-.61a1.26,1.26,0,0,1-1.34.37c-1.07-.26-1.24-1-1-2.05l.61-2.43Z"/></g><g class="cls-4"><path class="cls-3" d="M96.26,177l.07.57a1.52,1.52,0,0,1,1.37-.47c1.06.16,1.3.83,1.13,1.94l-.38,2.51-1.27-.2.34-2.19c.08-.58.13-1.06-.47-1.16s-.83.28-.94,1l-.32,2.12L94.53,181l.62-4.12Z"/></g><g class="cls-4"><path class="cls-3" d="M102.77,177.78l.13.56a1.51,1.51,0,0,1,1.31-.6c1.08.06,1.37.7,1.3,1.82l-.14,2.53L104.1,182l.12-2.21c0-.59,0-1.07-.57-1.11s-.79.35-.84,1.1l-.12,2.14-1.27-.07.24-4.15Z"/></g><g class="cls-4"><path class="cls-3" d="M107.86,178l2.08,0,.07,4.15-1.28,0-.06-3.19-.79,0Zm.66-1.45a.76.76,0,0,1,1.51,0,.77.77,0,0,1-.74.77A.75.75,0,0,1,108.52,176.5Z"/></g><g class="cls-4"><path class="cls-3" d="M112.15,177.82l.69-.06-.09-1,1.27-.11.09,1,.9-.08.08,1-.9.08.14,1.67c0,.39.17.46.58.42l.36,0,.09,1-.8.06c-1,.09-1.39-.07-1.47-1.05l-.17-2-.69.05Z"/></g><g class="cls-4"><path class="cls-3" d="M117.06,177.33l.68-.11-.16-1,1.26-.2.16,1,.89-.14.15,1-.89.14.26,1.65c.06.39.19.45.6.38l.37-.05.16,1-.8.13c-1,.16-1.39,0-1.54-1l-.31-2-.68.11Z"/></g><g class="cls-4"><path class="cls-3" d="M124.14,175.87a2.14,2.14,0,0,1,2.66,1.94l-3,.73a.91.91,0,0,0,1.15.61,1.11,1.11,0,0,0,.74-.49l1.07.12a2.19,2.19,0,0,1-1.55,1.33,2.19,2.19,0,1,1-1.08-4.24Zm-.5,1.93,1.84-.44a.83.83,0,0,0-1.08-.58A.9.9,0,0,0,123.64,177.8Z"/></g><g class="cls-4"><path class="cls-3" d="M128.06,173.41l1.21-.39,1.27,3.88c.12.38.27.41.67.28l.35-.11.32,1-.78.26c-1,.32-1.36.24-1.67-.69Z"/></g><g class="cls-4"><path class="cls-3" d="M132.19,173.5l1.92-.76,1.54,3.87-1.19.47-1.18-3-.73.29Zm.1-1.59a.75.75,0,1,1,1.4-.56.75.75,0,0,1-1.4.56Z"/></g><g class="cls-4"><path class="cls-3" d="M136.16,169.46a.75.75,0,0,1,1,.36.77.77,0,0,1-.37,1,.76.76,0,0,1-1-.37A.75.75,0,0,1,136.16,169.46ZM137.9,176c.4-.18.48-.28.36-.53l-1.76-3.79,1.16-.54,1.84,4c.4.86-.13,1.33-1,1.71l-.66.31-.43-.91Z"/></g><g class="cls-4"><path class="cls-3" d="M142.91,170.18l-.08-.14a.58.58,0,0,0-.92-.23.68.68,0,0,0-.39.79l-1.12.19a2,2,0,0,1,1.18-1.78,1.57,1.57,0,0,1,2.46.6l.44.8a9.77,9.77,0,0,0,.93,1.35l-1,.58L144,172a1.6,1.6,0,0,1-.92,1.21,1.29,1.29,0,0,1-1.85-.36C140.73,171.93,141.57,171.07,142.91,170.18Zm-.58,1.91a.5.5,0,0,0,.73.1c.44-.25.67-.61.29-1.28l0-.09C142.57,171.32,142.12,171.71,142.33,172.09Z"/></g><g class="cls-4"><path class="cls-3" d="M148.31,162.14a.75.75,0,1,1-.14,1.06A.75.75,0,0,1,148.31,162.14Zm3.08,6.07c.35-.26.41-.38.25-.6l-2.52-3.33,1-.77,2.63,3.48c.57.76.14,1.33-.58,1.88l-.59.44-.6-.8Z"/></g><g class="cls-4"><path class="cls-3" d="M155.08,161.43l-.11-.12a.58.58,0,0,0-.95,0,.67.67,0,0,0-.22.85l-1.06.42a2,2,0,0,1,.79-2,1.56,1.56,0,0,1,2.53.09l.6.68a9.25,9.25,0,0,0,1.18,1.13l-.88.78-.45-.28a1.57,1.57,0,0,1-.65,1.37,1.29,1.29,0,0,1-1.88,0C153.31,163.6,154,162.58,155.08,161.43Zm-.17,2c.17.2.48.17.73,0s.52-.74,0-1.31l-.07-.08C155,162.62,154.62,163.1,154.91,163.42Z"/></g><path class="cls-3" d="M38.65,128.46l4.54-2L50,142.1l-21.83,9.5-2.24-5.16,17.28-7.5Z"/><path class="cls-3" d="M19,126.9l-2-18.21,4.91-.54,1.39,12.58,4.11-.45-.84-7.68,4.93-.55.83,7.69,4.79-.53-1.39-12.58,4.93-.53,2,18.17Z"/><path class="cls-3" d="M40.62,103.93,17.38,98.69l1.23-5.5,8.87,2,2.15-9.57-8.87-2L22,78.14l23.23,5.24L44,88.87l-9.53-2.09-2.09,9.56,9.53,2.1Z"/><path class="cls-3" d="M30,71.67,25.78,69,37,51.34,41.14,54l-4.09,6.48L53,70.53l-3,4.73L34.06,65.19Z"/><path class="cls-3" d="M51.64,37c5.75-4.51,12.79-3.8,17.39,2s3.61,12.84-2.1,17.36-12.73,3.76-17.32-2.1S45.91,41.56,51.64,37ZM64,52.77c2.74-2.17,3.4-6.05.28-10s-7.06-4.2-9.8-2.1-3.39,6-.26,10,7.06,4.27,9.78,2.14Z"/><path class="cls-3" d="M80.7,39.35c1.29,2,3.45,2.42,6,1.62,1.94-.6,3.86-1.88,3.29-3.64s-2.47-1.85-5.06-1.55L82,36.1c-3.93.45-7.69-.35-8.92-4.19C71.52,27,75.9,23.27,80.46,21.83,84.13,20.68,88.18,21,90.72,24l-4.31,3.31c-1-1.35-2.93-1.7-5.07-1s-3.39,1.93-3,3.32c.36,1.16,1.65,1.69,3.31,1.5L85,30.75c3.9-.42,8.75-.67,10.23,4S92.67,43.83,88,45.25c-5,1.56-9.1.56-11.64-2.64Z"/><path class="cls-3" d="M100.1,17.94l18.32.3-.08,5L105.65,23l-.07,4.14,7.74.12-.12,5-7.72-.13-.09,4.82,12.7.21L118,42l-18.31-.29Z"/><path class="cls-3" d="M135.09,22.25l2.81,19.09,5.83-15.93,5.12,1.86-8.17,22.37-6.77-2.47L131.1,28.08,125.28,44l-5.09-1.87,8.17-22.36Z"/><path class="cls-3" d="M167.08,46.28l3.83-3.15,13.24,16.21-3.84,3.15-4.85-5.94-14.6,11.93-3.54-4.34,14.59-11.92Z"/><path class="cls-3" d="M184.49,69.66l4.08-1.7,4.71,11.32L189.2,81l-1.26-3-13.82,5.76,1.26,3-4.08,1.7-4.7-11.33,4.08-1.7L172,78.48l13.83-5.75Z"/><path class="cls-3" d="M197.45,98.55l-16.77,5.83,17.3,4.19.44,8.39-23.77,1.24-.29-5.49,18.69-1L174,107l-.24-4.62,18.4-6.6-18.69,1-.28-5.44,23.87-1.24Z"/><path class="cls-3" d="M192.51,140c-2.57,6.84-9,9.89-15.9,7.28s-9.75-9.11-7.18-15.95,8.93-9.82,15.87-7.21S195.08,133.2,192.51,140Zm-18.75-7c-1.23,3.27.22,6.94,5,8.71s8.23,0,9.44-3.3-.23-6.9-5-8.67S175,129.76,173.76,133Z"/><path class="cls-5" d="M107.67,66a42.22,42.22,0,0,1,42.23,42.21h0A42.23,42.23,0,1,1,107.66,66h0m0-2.1a44.35,44.35,0,1,0,31.33,13A44.33,44.33,0,0,0,107.68,63.92Z"/><path class="cls-5" d="M107.67,89.67a18.58,18.58,0,1,1-18.58,18.59,18.47,18.47,0,0,1,18.58-18.59h0m0-2.1a20.69,20.69,0,1,0,20.67,20.7v0a20.67,20.67,0,0,0-20.66-20.67Z"/><path class="cls-3" d="M107.67,156.7a48.42,48.42,0,0,1,0-96.84h0A48.06,48.06,0,0,1,141.87,74a48.61,48.61,0,0,1,14.22,34.23,48.41,48.41,0,0,1-48.37,48.46Zm0-92.84h0a44.42,44.42,0,0,0,0,88.84h0a44.42,44.42,0,0,0,44.38-44.46,44.6,44.6,0,0,0-13-31.4h0A44.14,44.14,0,0,0,107.67,63.86Z"/><path class="cls-3" d="M107.67,97a11.16,11.16,0,0,1,7.94,3.29,11,11,0,0,1,2.44,3.65A11.24,11.24,0,1,1,107.66,97h0m0-7.34a18.49,18.49,0,1,0,7.11,1.41A18.67,18.67,0,0,0,107.67,89.67Z"/><path class="cls-6" d="M126.77,116.16h0a20.4,20.4,0,0,1-4.49,6.7l15.22,15.22a42.25,42.25,0,0,0,9.17-13.68Z"/><path class="cls-7" d="M149.9,108.25H128.34a20.67,20.67,0,0,1-1.57,7.91l19.92,8.24A42.22,42.22,0,0,0,149.9,108.25Z"/><path class="cls-8" d="M149.9,108.25h0a42.25,42.25,0,0,0-3.15-16.16l-19.92,8.25a20.45,20.45,0,0,1,1.57,7.91Z"/><path class="cls-9" d="M137.52,78.39h0L122.28,93.62h0a20.44,20.44,0,0,1,4.48,6.69h0l19.92-8.25A42.29,42.29,0,0,0,137.52,78.39Z"/><path class="cls-10" d="M123.82,69.24h0l-8.25,19.92h0a20.88,20.88,0,0,1,6.7,4.47L137.5,78.4A41.54,41.54,0,0,0,123.82,69.24Z"/><path class="cls-11" d="M107.67,66h0V87.57h0a20.58,20.58,0,0,1,7.9,1.57l8.25-19.92A41.66,41.66,0,0,0,107.67,66Z"/><g class="cls-4"><path class="cls-3" d="M71.2,94.6l1-2.49.67.27-.71,1.73.56.23.44-1,.67.28-.43,1.05.65.27.71-1.72.68.27-1,2.5Z"/></g><g class="cls-4"><path class="cls-3" d="M75.34,91.25a.7.7,0,0,0,.8-.44c.15-.26.22-.59,0-.72s-.45,0-.69.35l-.28.33c-.37.45-.85.75-1.38.47s-.58-1.21-.24-1.83a1.36,1.36,0,0,1,1.31-.81l-.12.79a.66.66,0,0,0-.64.41c-.15.28-.16.55,0,.65s.34,0,.5-.18l.31-.37c.37-.44.86-1,1.5-.62a1.35,1.35,0,0,1,.31,1.86,1.49,1.49,0,0,1-1.51.9Z"/></g><g class="cls-4"><path class="cls-3" d="M75.71,87.34l-.59-.42,1.78-2.49.59.42-.65.91,2.24,1.61L78.6,88l-2.24-1.61Z"/></g><g class="cls-4"><path class="cls-3" d="M80.11,84.53a.5.5,0,0,1,.71,0,.51.51,0,1,1-.66.77A.5.5,0,0,1,80.11,84.53Z"/></g><g class="cls-4"><path class="cls-3" d="M82,79.66c.41-.35.58-.54.41-1l.46-.4,2.28,2.67-.6.51L83,79.64l-.61.52Z"/></g><g class="cls-4"><path class="cls-3" d="M85.37,76.29a1.26,1.26,0,0,1,1.76.31,1.15,1.15,0,0,1,.21.52l.31,1.93-.69.48-.14-1.2a1.25,1.25,0,0,1-1.45-2Zm1,1.47a.55.55,0,0,0,.14-.76l0,0v0a.56.56,0,0,0-.73-.1l0,0a.55.55,0,0,0-.1.73l0,0A.56.56,0,0,0,86.42,77.76Z"/></g><g class="cls-4"><path class="cls-3" d="M89,74.07a1.27,1.27,0,0,1,1.71.5,1.21,1.21,0,0,1,.15.54l.09,2-.73.4v-1.2a1.26,1.26,0,0,1-1.71-.5A1.24,1.24,0,0,1,89,74.07Zm.87,1.58a.55.55,0,0,0,.22-.74l0,0v0a.54.54,0,0,0-.72-.17l0,0a.54.54,0,0,0-.17.72l0,0A.56.56,0,0,0,89.82,75.65Z"/></g><g class="cls-4"><path class="cls-3" d="M92.8,75.19c.39-.6,1.08-1.69.86-2.23a.43.43,0,0,0-.61-.2.52.52,0,0,0-.33.6l-.77,0a1.31,1.31,0,0,1,.91-1.2,1.09,1.09,0,0,1,1.55.47c.27.66-.09,1.44-.82,2.38l1.55-.64.25.61L92.9,76l-.25-.61Z"/></g></svg>